{"title":"Hereafter 2010 CAM XViD V2 SAFCuk009","uid":6135958,"size":1887103129,"categoryP":"video","categoryS":"movies","magnet":"?xt=urn:btih:39c7b08e6101e9ece06ed0311c89db623eb3cdb7&amp;dn=Hereafter+2010+CAM+XViD+V2+SAFCuk009&amp;tr=udp%3A%2F%2Ftracker.openbittorrent.com%3A80&amp;tr=udp%3A%2F%2Fopen.demonii.com%3A1337&amp;tr=udp%3A%2F%2Ftracker.coppersurfer.tk%3A6969&amp;tr=udp%3A%2F%2Fexodus.desync.com%3A6969","seeders":1,"leechers":0,"uploader":"SAFCukO09","files":2,"time":1296261490,"description":"Format : AVI\nFormat/Info : Audio Video Interleave\nFile size : 1.76 GiB\nDuration : 2h 2mn\nOverall bit rate : 2 051 Kbps\nWriting library : VirtualDub build 32839/release\n\nVideo\nID : 0\nFormat : MPEG-4 Visual\nFormat profile : Advanced Simple@L5\nFormat settings, BVOP : Yes\nFormat settings, QPel : No\nFormat settings, GMC : No warppoints\nFormat settings, Matrix : Custom\nCodec ID : XVID\nCodec ID/Hint : XviD\nDuration : 2h 2mn\nBit rate : 1 914 Kbps\nWidth : 720 pixels\nHeight : 400 pixels\nDisplay aspect ratio : 16:9\nFrame rate : 25.000 fps\nColor space : YUV\nChroma subsampling : 4:2:0\nBit depth : 8 bits\nScan type : Progressive\nBits/(Pixel*Frame) : 0.266\nStream size : 1.64 GiB (93%)\nWriting library : XviD 1.2.1 (UTC 2008-12-04)\n\nAudio\nID : 1\nFormat : MPEG Audio\nFormat version : Version 1\nFormat profile : Layer 3\nCodec ID : 55\nCodec ID/Hint : MP3\nDuration : 2h 2mn\nBit rate mode : Constant\nBit rate : 128 Kbps\nChannel(s) : 2 channels\nSampling rate : 44.1 KHz\nStream size : 112 MiB (6%)\nAlignment : Split accross interleaves\nInterleave, duration : 40 ms (1.00 video frame)\nInterleave, preload duration : 500 ms\n\n &lt;a href=&quot;\nhttp://www.imdb.com/title/tt1212419/&quot; rel=&quot;nofollow&quot; target=&quot;_NEW&quot;&gt;\nhttp://www.imdb.com/title/tt1212419/&lt;/a&gt;\n\n\nUsers: 7.2/10 (5,985 votes) 130 reviews | Critics: 154 reviews Metascore: 56/100 (based on 42 reviews from Metacritic.com)\n\nA drama centered on three people -- a blue-collar American, a French journalist and a London school boy -- who are touched by death in different ways.\nDirector:\nClint Eastwood\nWriter:\nPeter Morgan\nStars:\nMatt Damon, CÃƒÂ©cile De France and Bryce Dallas Howard","torrent":{"xt":"urn:btih:39c7b08e6101e9ece06ed0311c89db623eb3cdb7","amp;dn":"Hereafter+2010+CAM+XViD+V2+SAFCuk009","amp;tr":["udp%3A%2F%2Ftracker.openbittorrent.com%3A80","udp%3A%2F%2Fopen.demonii.com%3A1337","udp%3A%2F%2Ftracker.coppersurfer.tk%3A6969","udp%3A%2F%2Fexodus.desync.com%3A6969"],"infoHash":"39c7b08e6101e9ece06ed0311c89db623eb3cdb7","infoHashBuffer":{"type":"Buffer","data":[57,199,176,142,97,1,233,236,224,110,208,49,28,137,219,98,62,179,205,183]},"announce":[],"urlList":[]}}